<svg width="30" height="28" viewBox="0 0 30 28" fill="none" xmlns="http://www.w3.org/2000/svg">
<path d="M28.2811 13.3257L14.8481 1.64918C14.8028 1.6095 14.7442 1.58759 14.6836 1.58759C14.623 1.58759 14.5645 1.6095 14.5191 1.64918L1.0851 13.3257C1.04695 13.3585 1.01988 13.4021 1.00751 13.4505C0.99515 13.4989 0.998101 13.5499 1.01595 13.5967C1.0338 13.6434 1.0657 13.6836 1.10738 13.7119C1.14906 13.7403 1.19851 13.7553 1.24911 13.7551H5.01311C5.07889 13.7551 5.14196 13.7809 5.18847 13.8268C5.23498 13.8727 5.26111 13.9349 5.26111 13.9999V26.5707C5.26111 26.6029 5.26755 26.6348 5.28008 26.6646C5.29261 26.6943 5.31096 26.7214 5.3341 26.7441C5.35723 26.7668 5.38469 26.7848 5.41489 26.7971C5.4451 26.8093 5.47745 26.8156 5.51011 26.8154H11.6031V21.2624C11.6031 20.4561 11.9276 19.6829 12.5052 19.1128C13.0828 18.5427 13.8662 18.2224 14.6831 18.2224C15.5 18.2224 16.2834 18.5427 16.861 19.1128C17.4386 19.6829 17.7631 20.4561 17.7631 21.2624V26.8125H23.8711C23.9038 26.8126 23.9361 26.8064 23.9663 26.7941C23.9965 26.7819 24.024 26.7639 24.0471 26.7411C24.0703 26.7184 24.0886 26.6914 24.1011 26.6616C24.1137 26.6318 24.1201 26.5999 24.1201 26.5677V14.0009C24.1201 13.9686 24.1265 13.9367 24.1391 13.9069C24.1516 13.8772 24.17 13.8502 24.1931 13.8274C24.2162 13.8047 24.2437 13.7867 24.2739 13.7744C24.3041 13.7622 24.3365 13.7559 24.3691 13.7561H28.1171C28.1679 13.7565 28.2177 13.7416 28.2596 13.7132C28.3015 13.6848 28.3336 13.6444 28.3515 13.5975C28.3694 13.5505 28.3722 13.4993 28.3597 13.4507C28.3471 13.4021 28.3196 13.3584 28.2811 13.3257V13.3257Z" fill="#BCBCBC" stroke="#BCBCBC" stroke-width="2" stroke-linecap="round" stroke-linejoin="round"/>
</svg>
